<svg width="30" height="30" viewBox="0 0 30 30" fill="none" xmlns="http://www.w3.org/2000/svg">
<g clip-path="url(#clip0_1_16898)">
<path d="M29.6992 14.8496C29.6992 23.0504 23.0504 29.6992 14.8496 29.6992C6.64886 29.6992 0 23.0504 0 14.8496C0 6.64886 6.64886 0 14.8496 0C23.0521 0 29.6992 6.64886 29.6992 14.8496Z" fill="#2081E2"/>
<path d="M7.32591 15.3486L7.38997 15.2479L11.2529 9.20472C11.3094 9.11625 11.4421 9.1254 11.4848 9.2215C12.1302 10.6678 12.6871 12.4666 12.4262 13.5864C12.3148 14.0472 12.0097 14.6712 11.6664 15.2479C11.6222 15.3318 11.5733 15.4142 11.5215 15.4935C11.497 15.5301 11.4559 15.5515 11.4116 15.5515H7.43879C7.33199 15.5515 7.26945 15.4355 7.32591 15.3486Z" fill="white"/>
<path d="M24.5442 16.4716V17.4282C24.5442 17.4831 24.5107 17.5319 24.4619 17.5533C24.1628 17.6814 23.1391 18.1513 22.7135 18.7433C21.6272 20.2552 20.7972 22.4171 18.942 22.4171H11.2023C8.45923 22.4171 6.23633 20.1866 6.23633 17.4343V17.3458C6.23633 17.2725 6.29582 17.2131 6.36905 17.2131H10.6836C10.7691 17.2131 10.8316 17.2924 10.824 17.3763C10.7935 17.657 10.8454 17.9438 10.9781 18.2047C11.2344 18.725 11.7653 19.05 12.339 19.05H14.4749V17.3824H12.3634C12.2551 17.3824 12.191 17.2573 12.2535 17.1688C12.2764 17.1337 12.3024 17.0971 12.3298 17.0559C12.5297 16.7721 12.815 16.3312 13.0988 15.8293C13.2925 15.4906 13.4801 15.129 13.6312 14.7659C13.6617 14.7003 13.6861 14.6331 13.7105 14.5675C13.7517 14.4516 13.7945 14.3433 13.825 14.235C13.8555 14.1434 13.8799 14.0473 13.9043 13.9573C13.976 13.6491 14.0065 13.3226 14.0065 12.9839C14.0065 12.8512 14.0004 12.7123 13.9882 12.5796C13.9821 12.4347 13.9638 12.2897 13.9455 12.1448C13.9333 12.0166 13.9104 11.89 13.886 11.7573C13.8555 11.5635 13.8128 11.3713 13.7639 11.1775L13.7471 11.1043C13.7105 10.9716 13.68 10.8449 13.6373 10.7122C13.5168 10.2957 13.378 9.88988 13.2315 9.51C13.1781 9.35895 13.117 9.21401 13.056 9.06908C12.966 8.85091 12.8745 8.65258 12.7906 8.46491C12.7479 8.37947 12.7112 8.30165 12.6746 8.22233C12.6334 8.13231 12.5907 8.04229 12.548 7.95688C12.5175 7.89127 12.4824 7.83024 12.458 7.76921L12.1971 7.2871C12.1605 7.22149 12.2215 7.14368 12.2932 7.16352L13.9257 7.60595H13.9302C13.9333 7.60595 13.9348 7.60749 13.9363 7.60749L14.1514 7.66698L14.3879 7.73413L14.4749 7.75851V6.78821C14.4749 6.31982 14.8502 5.93994 15.314 5.93994C15.5459 5.93994 15.7564 6.03453 15.9075 6.18861C16.0585 6.34272 16.1531 6.55326 16.1531 6.78821V8.22845L16.3271 8.27724C16.3408 8.28184 16.3545 8.28793 16.3667 8.29708C16.4094 8.32913 16.4704 8.37641 16.5483 8.43441C16.6093 8.48321 16.6749 8.54272 16.7542 8.60375C16.9114 8.73036 17.099 8.89362 17.305 9.08129C17.3599 9.12857 17.4133 9.1774 17.4621 9.22622C17.7276 9.47338 18.0251 9.76324 18.3089 10.0836C18.3882 10.1737 18.466 10.2652 18.5454 10.3613C18.6247 10.4589 18.7086 10.5551 18.7818 10.6512C18.878 10.7793 18.9817 10.9121 19.0717 11.0509C19.1144 11.1165 19.1632 11.1836 19.2044 11.2492C19.3204 11.4247 19.4226 11.6063 19.5203 11.7878C19.5615 11.8717 19.6042 11.9632 19.6408 12.0533C19.7491 12.2958 19.8345 12.543 19.8895 12.7902C19.9062 12.8436 19.9184 12.9015 19.9246 12.9534V12.9656C19.9429 13.0388 19.949 13.1166 19.9551 13.196C19.9795 13.4492 19.9673 13.7025 19.9123 13.9573C19.8895 14.0656 19.859 14.1678 19.8223 14.2762C19.7857 14.3799 19.7491 14.4882 19.7018 14.5904C19.6103 14.8025 19.5019 15.0146 19.3738 15.2129C19.3326 15.2861 19.2838 15.364 19.2349 15.4372C19.1815 15.515 19.1266 15.5882 19.0778 15.6599C19.0107 15.7515 18.939 15.8476 18.8657 15.933C18.8001 16.023 18.733 16.1131 18.6598 16.1924C18.5576 16.3129 18.4599 16.4273 18.3577 16.5372C18.2967 16.6089 18.2311 16.6821 18.1639 16.7477C18.0984 16.8209 18.0312 16.8865 17.9702 16.9476C17.868 17.0498 17.7825 17.1291 17.7108 17.1947L17.543 17.3488C17.5186 17.3702 17.4865 17.3824 17.453 17.3824H16.1531V19.05H17.7886C18.1548 19.05 18.5026 18.9203 18.7834 18.6822C18.8795 18.5983 19.299 18.2352 19.7949 17.6875C19.8116 17.6692 19.833 17.6555 19.8574 17.6494L24.3749 16.3434C24.4588 16.319 24.5442 16.3831 24.5442 16.4716Z" fill="white"/>
</g>
<defs>
<clipPath id="clip0_1_16898">
<rect width="29.6992" height="29.6992" fill="white"/>
</clipPath>
</defs>
</svg>
