<svg width="23" height="22" viewBox="0 0 23 22" fill="none" xmlns="http://www.w3.org/2000/svg">
<g clip-path="url(#clip0_8_4478)">
<path d="M11.0417 4C10.7655 4 10.5417 4.22386 10.5417 4.5L10.5417 14.5713C10.5417 15.011 10.0148 15.2366 9.69656 14.9331L7.44684 12.7871C7.25347 12.6027 6.94924 12.6029 6.75612 12.7876L6.12775 13.3887C5.92189 13.5856 5.92189 13.9144 6.12774 14.1113L11.1544 18.9194C11.3477 19.1043 11.6523 19.1043 11.8456 18.9194L16.8723 14.1113C17.0781 13.9144 17.0781 13.5856 16.8723 13.3887L16.2439 12.7876C16.0508 12.6029 15.7465 12.6027 15.5532 12.7871L13.3034 14.9331C12.9852 15.2366 12.4583 15.011 12.4583 14.5713L12.4583 4.5C12.4583 4.22386 12.2345 4 11.9583 4L11.0417 4Z" fill="#E53E3E"/>
</g>
<defs>
<clipPath id="clip0_8_4478">
<rect width="22" height="23" fill="white" transform="translate(0 22) rotate(-90)"/>
</clipPath>
</defs>
</svg>
