<svg width="23" height="22" viewBox="0 0 23 22" fill="none" xmlns="http://www.w3.org/2000/svg">
<g clip-path="url(#clip0_8_4444)">
<path d="M11.9583 18C12.2345 18 12.4583 17.7761 12.4583 17.5L12.4583 7.42875C12.4583 6.98897 12.9852 6.7634 13.3034 7.06695L15.5532 9.21286C15.7465 9.39731 16.0508 9.3971 16.2439 9.21238L16.8723 8.61132C17.0781 8.41442 17.0781 8.08558 16.8723 7.88868L11.8456 3.08059C11.6523 2.89568 11.3477 2.89568 11.1544 3.08058L6.12775 7.88868C5.92189 8.08558 5.92189 8.41442 6.12775 8.61132L6.75612 9.21238C6.94924 9.39709 7.25347 9.39731 7.44684 9.21286L9.69656 7.06695C10.0148 6.7634 10.5417 6.98897 10.5417 7.42875L10.5417 17.5C10.5417 17.7761 10.7655 18 11.0417 18L11.9583 18Z" fill="#6BD88D"/>
</g>
<defs>
<clipPath id="clip0_8_4444">
<rect width="22" height="23" fill="white" transform="translate(23) rotate(90)"/>
</clipPath>
</defs>
</svg>
